# xmcd CD database file
#
# Track frame offsets:
#	150
#	17912
#	36826
#	56089
#	80999
#	102270
#	121146
#	142441
#	168432
#	190928
#	213527
#	232074
#
# Disc length: 3441 seconds
#
# Revision: 0
# Processed by: cddbd v1.5.2PL0 Copyright (c) Steve Scherf et al.
# Submitted via: CDex 1.51
#
DISCID=b70d6f0c
DTITLE=Jane Monheit - Surrender
DYEAR=2007
DGENRE=Jazz
TTITLE0=If You Went Away
TTITLE1=Surrender
TTITLE2=Rio De Maio
TTITLE3=Like A Lover
TTITLE4=So' Tinha De Ser Com Voce'
TTITLE5=So Many Stars
TTITLE6=Moon River
TTITLE7=Overjoyed
TTITLE8=Caminhos Cruzados
TTITLE9=A Time For Love
TTITLE10=Pure Imagination
TTITLE11=Surrender(Full Length Version)
EXTD=YEAR: 2007
EXTT0=
EXTT1=
EXTT2=
EXTT3=
EXTT4=
EXTT5=
EXTT6=
EXTT7=
EXTT8=
EXTT9=
EXTT10=
EXTT11=
PLAYORDER=
